<svg xmlns="http://www.w3.org/2000/svg" viewBox="0 0 380 150">
  <g fill="none" fill-rule="evenodd">
    <rect width="380" height="150"/>
    <g fill="#FFF">
      <path d="M0 40.19C0 31.8 6.8 25 15.19 25h69.62C93.2 25 100 31.8 100 40.19v69.62c0 8.39-6.8 15.19-15.19 15.19H49.77c2.83-.929 5.288-2.143 7.373-3.641 3.704-2.717 6.122-6.185 7.254-10.403-.745.245-1.488.492-2.231.744-8.334 2.867-16.325 6.493-24.144 10.513A241.46 241.46 0 0 0 32.744 125H15.19a15.12 15.12 0 0 1-8.399-2.531c5.878-2.988 11.832-5.819 17.914-8.408 11.599-4.948 23.485-9.052 35.914-11.413 1.412-.24 2.856-.438 4.371-.645-.254-2.376-.822-4.544-1.706-6.502-21.96.695-42.953 5.191-63.284 13.342v-16.16c.607-.11 1.215-.218 1.822-.327l.055-.01c6.044-1.083 12.089-2.166 18.158-3.01 8.168-1.142 16.423-1.318 24.648-.908 3.983.216 7.946.786 11.905 1.355.873.125 1.746.25 2.62.372.206.027.418.098.626.2-2.485-2.702-5.632-4.67-9.439-5.903 3.234-1.743 5.768-4.185 7.6-7.326 1.834-3.14 2.736-6.745 2.708-10.811-.046-6.648-2.67-11.83-7.874-15.549-5.205-3.796-12.598-5.66-22.18-5.594H0V40.19Zm80.38 14.987c5.942 0 10.76-4.817 10.76-10.76 0-5.942-4.818-10.759-10.76-10.759-5.943 0-10.76 4.817-10.76 10.76 0 5.942 4.817 10.76 10.76 10.76Z"/>
      <path d="m7.78 57.296.156 22.64 21.33-.148c5.254-.036 9.266-1.002 12.035-2.898 2.846-1.975 4.256-4.8 4.231-8.476-.026-3.754-1.475-6.56-4.348-8.417-2.795-1.935-6.82-2.885-12.076-2.849l-21.329.148Zm134.176-8.936c1.314-.897 2.369-1.97 3.14-3.2 1.077-1.609 1.625-3.46 1.625-5.509 0-3.125-1.129-5.828-3.357-8.036-2.466-2.417-5.781-3.646-9.851-3.646H119.11c-2.268 0-4.08.674-5.393 2.008-1.141 1.176-1.717 2.646-1.717 4.364v31.01c0 1.683.576 3.134 1.721 4.314 1.305 1.327 3.117 2 5.389 2h15.375c4.498 0 8.14-1.34 10.825-3.988 2.399-2.356 3.614-5.272 3.614-8.662 0-2.646-.821-4.997-2.436-6.985-1.154-1.472-2.675-2.703-4.532-3.67Zm-24.043-13.79c0-.53.139-.932.421-1.229.213-.22.596-.51 1.487-.51h13.303c2.465 0 4.331.675 5.727 2.075 1.314 1.259 1.954 2.793 1.954 4.69 0 1.819-.642 3.34-1.968 4.648-1.427 1.42-3.297 2.114-5.713 2.114h-15.211V34.57Zm22.932 29.839c-1.602 1.61-3.702 2.398-6.424 2.398h-14.6c-.888 0-1.274-.29-1.479-.5-.29-.307-.429-.694-.429-1.181v-13.96h16.184c2.778 0 4.945.788 6.631 2.41 1.539 1.49 2.285 3.269 2.285 5.439 0 2.139-.728 3.953-2.168 5.394Zm36.582-34.164c-.407-1.033-1.041-1.84-1.889-2.401a4.801 4.801 0 0 0-2.634-.787c-1.031 0-1.964.267-2.774.792-.845.557-1.479 1.363-1.88 2.382L152.247 68.9c-.523 1.046-.314 1.829-.045 2.306.369.652.945 1.098 1.717 1.332a3.087 3.087 0 0 0 2.244-.176 3.398 3.398 0 0 0 1.665-1.701l5.291-12.757h19.501l5.237 12.782a3.412 3.412 0 0 0 1.566 1.662l.121.056a3.528 3.528 0 0 0 2.223.072c.757-.23 1.328-.676 1.653-1.295.359-.688.396-1.433.092-2.232l-16.085-38.705Zm-12.322 22.852 7.762-18.674 7.706 18.674h-15.468Zm69.917 2.364c-.792-.162-1.542-.077-2.25.264a2.644 2.644 0 0 0-1.419 1.857c-.903 3.66-2.615 6.361-5.093 8.017-2.203 1.445-5.136 2.177-8.713 2.177-4.769 0-8.46-1.417-11.284-4.333-3.036-3.142-4.574-7.725-4.574-13.623 0-5.755 1.541-10.301 4.574-13.514 2.903-2.99 6.593-4.445 11.284-4.445 3.552 0 6.512.72 8.803 2.134 2.538 1.56 4.11 3.836 4.8 6.938.17.91.634 1.595 1.365 2.031a2.99 2.99 0 0 0 2.175.353c.788-.158 1.413-.515 1.878-1.093.475-.628.656-1.321.53-2.097-.815-3.822-2.729-6.92-5.7-9.216C227.95 28.314 223.29 27 217.547 27c-6.451 0-11.739 2.116-15.707 6.29-4.026 4.17-6.064 9.73-6.064 16.53 0 6.948 2.041 12.549 6.064 16.64 3.934 4.098 9.219 6.178 15.707 6.178 5.707 0 10.357-1.418 13.81-4.214 2.894-2.313 4.912-5.49 5.995-9.46.227-.912.092-1.704-.385-2.337-.437-.607-1.119-1.01-1.945-1.166Zm44.538-3.431c-1.151-1.47-2.673-2.703-4.529-3.67 1.313-.897 2.371-1.97 3.14-3.203 1.077-1.61 1.623-3.46 1.623-5.506 0-3.125-1.126-5.828-3.355-8.036-2.465-2.417-5.782-3.646-9.851-3.646h-14.405c-2.267 0-4.08.674-5.39 2.008-1.139 1.176-1.718 2.646-1.718 4.364v31.01c0 1.683.579 3.134 1.722 4.314 1.306 1.327 3.116 2 5.386 2h15.377c4.494 0 8.14-1.34 10.827-3.988 2.396-2.356 3.613-5.272 3.613-8.662 0-2.644-.822-4.995-2.44-6.985Zm-28.572-17.46c0-.53.139-.932.42-1.229.216-.22.596-.51 1.491-.51h13.3c2.462 0 4.332.675 5.725 2.075 1.315 1.259 1.958 2.793 1.958 4.69 0 1.819-.644 3.338-1.968 4.648-1.428 1.42-3.298 2.114-5.715 2.114h-15.211V34.57Zm22.931 29.839c-1.6 1.61-3.701 2.398-6.425 2.398h-14.595c-.894 0-1.276-.29-1.482-.503-.29-.304-.429-.689-.429-1.178v-13.96h16.183c2.778 0 4.945.788 6.631 2.41 1.539 1.49 2.285 3.267 2.285 5.439 0 2.139-.728 3.953-2.168 5.394ZM126.881 122c8.205 0 14.825-6.405 14.825-14.793 0-8.39-6.62-14.794-14.825-14.794-8.261 0-14.881 6.405-14.881 14.794 0 8.388 6.62 14.793 14.881 14.793Zm0-2.72c-6.733 0-11.995-5.329-11.995-12.073 0-6.745 5.262-12.073 11.995-12.073 6.734 0 11.939 5.328 11.939 12.073 0 6.744-5.205 12.072-11.939 12.072Zm38.552-26.867c-4.357 0-7.978 1.814-10.128 6.008v-5.385h-2.83v28.34h2.83v-14.963c0-7.652 4.356-11.28 9.902-11.28 5.318 0 8.317 3.401 8.317 8.616v17.627h2.886V103.75c0-6.858-4.244-11.336-10.977-11.336Zm22.942 28.963h2.829V80h-2.829v41.376Zm16.924-35.198a2.272 2.272 0 0 0 2.263-2.267c0-1.19-1.018-2.21-2.263-2.21-1.245 0-2.264 1.02-2.264 2.21a2.272 2.272 0 0 0 2.264 2.267Zm-1.415 35.198h2.829v-28.34h-2.829v28.34Zm28.467-28.963c-4.357 0-7.978 1.814-10.128 6.008v-5.385h-2.829v28.34h2.829v-14.963c0-7.652 4.357-11.28 9.902-11.28 5.319 0 8.317 3.401 8.317 8.616v17.627h2.886V103.75c0-6.858-4.244-11.336-10.977-11.336Zm35.673 0c-8.657 0-14.655 6.462-14.655 14.794 0 8.558 6.168 14.793 14.881 14.793 5.602 0 10.016-2.55 12.335-6.405l-2.489-1.474c-1.641 3.005-5.149 5.158-9.789 5.158-6.451 0-11.317-4.194-11.996-10.599h25.632c0-.453.057-.907.057-1.36 0-7.765-5.375-14.907-13.976-14.907Zm0 2.72c5.545 0 10.411 3.855 11.034 10.77h-22.747c.566-6.292 5.263-10.77 11.713-10.77Z"/>
    </g>
  </g>
</svg>
