<svg width="822" height="193" viewBox="0 0 822 193" fill="none" xmlns="http://www.w3.org/2000/svg">
<g clip-path="url(#clip0_37_180)">
<path d="M182.09 135.73C178.71 139.11 174.27 140.8 169.83 140.8C165.39 140.8 160.95 139.11 157.57 135.73L132.95 111.11L117.91 96.07L102.35 80.5L117.39 65.46L132.95 81.02L132.97 81L148.01 96.04L147.99 96.06L169.83 117.9L191.67 96.06L169.83 74.22L154.26 89.79L139.22 74.75L157.57 56.4C164.33 49.63 175.33 49.64 182.09 56.4L192.13 66.44V13.08C192.13 5.86 186.27 0 179.05 0H125.7L135.73 10.04C142.49 16.8 142.49 27.8 135.73 34.56L111.11 59.18L111.14 59.21L96.1 74.25L96.07 74.22L80.49 89.8L65.45 74.76L75.73 64.48L97.55 42.67L117.92 22.29L96.06 0.46L74.22 22.3L89.81 37.89L74.77 52.93L56.39 34.55C49.63 27.79 49.63 16.79 56.39 10.03L66.43 0H13.08C5.85 0 0 5.85 0 13.08V66.43L10.04 56.39C13.3 53.12 17.66 51.32 22.3 51.32C26.94 51.32 31.29 53.12 34.56 56.39L59.18 81.01L74.22 96.04L89.87 111.7L74.83 126.74L59.18 111.09L59.16 111.11L44.12 96.07L44.14 96.05L22.3 74.21L0.46 96.06L22.3 117.9L37.88 102.33L52.92 117.37L34.56 135.73C31.29 139 26.94 140.8 22.3 140.8C17.66 140.8 13.31 139 10.04 135.73L0 125.69V179.04C0 186.26 5.85 192.12 13.08 192.12H66.43L56.4 182.08C49.64 175.32 49.64 164.32 56.4 157.56L75.86 138.1L75.92 138.16L97.74 116.35L97.68 116.29L111.66 102.31L126.7 117.35L111.11 132.94L111.2 133.03L96.16 148.07L96.07 147.98L74.23 169.82L96.07 191.66L117.91 169.82L102.4 154.31L117.44 139.27L135.73 157.56C142.49 164.32 142.49 175.32 135.73 182.08L125.69 192.12H179.04C186.26 192.12 192.12 186.26 192.12 179.04V125.69L182.08 135.73H182.09Z" fill="url(#paint0_linear_37_180)"/>
<path d="M275.41 68.9398V67.7598C275.41 62.6198 273.71 58.6598 270.36 56.0098C267.05 53.3998 262.23 52.0698 256.03 52.0698C253.71 52.0698 252 52.0998 250.83 52.1598V43.1698H270.8C272.01 43.1698 272.73 42.4998 272.73 41.3698V36.2098C272.73 35.7098 272.54 35.2498 272.18 34.8898C271.82 34.5298 271.34 34.3398 270.8 34.3398H242.46C241.94 34.3398 241.46 34.5398 241.09 34.9098C240.71 35.2798 240.52 35.7498 240.52 36.2798V81.1998C240.52 82.3398 241.06 82.9498 241.51 83.2598C241.93 83.5498 242.91 83.8998 247.02 84.2498C250.02 84.4998 253.04 84.6298 256.02 84.6298C260.11 84.6298 263.64 84.0498 266.52 82.8998C269.45 81.7298 271.68 79.9498 273.17 77.6098C274.65 75.2798 275.4 72.3698 275.4 68.9498L275.41 68.9398ZM256.03 75.8898C254.2 75.8898 252.46 75.8198 250.83 75.6898V61.0498C252.44 60.9198 254.18 60.8498 256.03 60.8498C259.21 60.8498 261.57 61.3998 263.04 62.4898C264.48 63.5498 265.17 65.2798 265.17 67.7698V68.9498C265.17 71.3698 264.47 73.1398 263.09 74.2198C261.66 75.3398 259.28 75.8998 256.03 75.8998V75.8898Z" fill="#6D6E71"/>
<path d="M311.52 56.0198C308.21 53.4098 303.39 52.0798 297.19 52.0798C294.87 52.0798 293.16 52.1098 291.99 52.1698V36.2798C291.99 35.7598 291.82 35.3098 291.47 34.9298C291.12 34.5498 290.65 34.3398 290.12 34.3398H277.73C277.21 34.3398 276.74 34.5298 276.37 34.8798C275.99 35.2398 275.8 35.6998 275.8 36.2098V41.3698C275.8 42.4998 276.52 43.1698 277.73 43.1698H281.69V81.1998C281.69 82.3398 282.23 82.9498 282.68 83.2598C283.1 83.5498 284.08 83.8998 288.19 84.2498C291.19 84.4998 294.21 84.6298 297.19 84.6298C301.28 84.6298 304.81 84.0498 307.69 82.8998C310.62 81.7298 312.85 79.9498 314.34 77.6098C315.82 75.2798 316.57 72.3698 316.57 68.9498V67.7698C316.57 62.6298 314.87 58.6698 311.52 56.0198ZM297.19 75.8898C295.36 75.8898 293.62 75.8198 291.99 75.6898V61.0498C293.6 60.9198 295.34 60.8498 297.19 60.8498C300.37 60.8498 302.73 61.3998 304.2 62.4898C305.64 63.5498 306.33 65.2798 306.33 67.7698V68.9498C306.33 71.3698 305.63 73.1398 304.25 74.2198C302.82 75.3398 300.44 75.8998 297.19 75.8998V75.8898Z" fill="#6D6E71"/>
<path d="M338.34 42.7896C338.43 42.7896 338.61 42.7897 338.75 43.3297L348.21 82.5296C348.57 83.9096 349.52 84.1096 350.06 84.1096H356.97C358.1 84.1096 358.77 83.4597 358.77 82.3697L347.99 41.0096C346.77 36.2796 343.52 33.8896 338.34 33.8896C333.16 33.8896 329.88 36.2896 328.66 41.0096L317.96 81.8997C317.89 82.1697 317.88 82.2797 317.88 82.3697C317.88 83.4597 318.55 84.1096 319.68 84.1096H326.59C327.14 84.1096 328.12 83.8996 328.44 82.5196L337.89 43.3297C338.03 42.7897 338.22 42.7896 338.33 42.7896H338.34Z" fill="#6D6E71"/>
<path d="M364.94 84.1199H371.31C371.83 84.1199 372.31 83.9199 372.68 83.5499C373.05 83.1799 373.25 82.7099 373.25 82.1799V47.8899C373.25 45.9799 373.57 44.6499 374.19 43.9399C374.79 43.2599 376 42.9099 377.78 42.9099H391.09C391.61 42.9099 392.09 42.7099 392.46 42.3399C392.83 41.9699 393.03 41.4999 393.03 40.9699V36.7999C393.03 36.1699 392.86 35.6699 392.52 35.3199C392.3 35.0899 392.03 34.7999 387.58 34.3299C384.77 34.0299 381.79 33.8799 378.71 33.8799C373.05 33.8799 368.97 35.0499 366.6 37.3499C364.22 39.6599 363.02 43.1999 363.02 47.8799V82.1699C363.02 82.6899 363.22 83.1699 363.59 83.5399C363.96 83.9099 364.43 84.1099 364.96 84.1099L364.94 84.1199Z" fill="#6D6E71"/>
<path d="M426.59 82.5497C426.83 83.5597 427.49 84.1096 428.44 84.1096H435.35C436.48 84.1096 437.15 83.4597 437.15 82.3697L426.37 41.0096C425.15 36.2796 421.9 33.8896 416.72 33.8896C411.54 33.8896 408.26 36.2896 407.04 41.0096L396.34 81.8997C396.27 82.1697 396.26 82.2797 396.26 82.3697C396.26 83.4597 396.93 84.1096 398.06 84.1096H404.97C405.37 84.1096 405.75 83.9696 406.08 83.6996C406.4 83.4396 406.6 83.1797 406.7 82.8997C406.72 82.8297 406.79 82.6296 407.88 78.0896L409.71 70.6096H423.72L426.6 82.5396L426.59 82.5497ZM416.41 42.8797C416.43 42.8197 416.54 42.7896 416.73 42.7896C416.83 42.7896 416.89 42.7896 416.91 42.7896C417.03 43.1096 417.39 44.3696 418.51 48.9396L421.67 61.9496H411.77L416.41 42.8896V42.8797Z" fill="#6D6E71"/>
<path d="M451.18 83.5304C451.52 83.1604 451.7 82.7004 451.7 82.1804V65.8404C454.09 65.9904 455.8 66.0604 456.9 66.0604C460.96 66.0604 464.47 65.4604 467.34 64.2804C470.26 63.0804 472.51 61.2704 474.01 58.9004C475.51 56.5404 476.27 53.6004 476.27 50.1604V49.5904C476.27 44.4504 474.57 40.4904 471.22 37.8404C467.91 35.2304 463.09 33.9004 456.89 33.9004C453.94 33.9004 450.92 34.0304 447.94 34.2804C443.83 34.6304 442.84 34.9904 442.43 35.2604C441.96 35.5704 441.4 36.1804 441.4 37.3304V82.1904C441.4 82.7104 441.6 83.1904 441.97 83.5604C442.34 83.9304 442.81 84.1304 443.34 84.1304H449.84C450.37 84.1304 450.84 83.9304 451.19 83.5404L451.18 83.5304ZM456.89 57.3604C455.58 57.3604 453.84 57.3104 451.69 57.2004V42.8604C453.31 42.7104 455.06 42.6304 456.89 42.6304C460.15 42.6304 462.53 43.2004 463.95 44.3104C465.35 45.4004 466.03 47.1304 466.03 49.5804V50.1504C466.03 52.7104 465.33 54.5004 463.9 55.6304C462.44 56.7804 460.08 57.3604 456.88 57.3604H456.89Z" fill="#6D6E71"/>
<path d="M505.82 84.2396C508.05 83.9796 509.5 83.7196 510.24 83.4596C511.18 83.1296 511.69 82.4297 511.69 81.4797V77.0896C511.69 75.8396 510.97 75.0896 509.76 75.0896L504.5 75.4397C502.66 75.5697 500.96 75.6296 499.45 75.6296C493.51 75.6296 490.62 71.8496 490.62 64.0596V54.4796C490.62 46.6996 493.51 42.9096 499.45 42.9096C502.17 42.9096 505.58 43.0796 509.59 43.4196H509.77C510.98 43.4196 511.7 42.6796 511.7 41.4296V37.0696C511.7 36.1296 511.19 35.4297 510.27 35.0797C509.54 34.7997 508.08 34.5396 505.81 34.2796C503.6 34.0196 501.42 33.8896 499.32 33.8896C496.22 33.8896 493.21 34.4896 490.39 35.6596C487.52 36.8496 485.09 39.0097 483.16 42.0597C481.24 45.1097 480.26 49.2896 480.26 54.4796V64.0596C480.26 70.7396 482.02 75.8897 485.51 79.3697C488.99 82.8497 493.64 84.6197 499.33 84.6197C501.47 84.6197 503.66 84.4897 505.83 84.2297L505.82 84.2396Z" fill="#6D6E71"/>
<path d="M519.55 84.1197H525.98C526.5 84.1197 526.98 83.9197 527.35 83.5497C527.72 83.1797 527.92 82.7097 527.92 82.1797V62.5897L541.7 83.0997C542 83.5597 542.6 84.1197 543.72 84.1197H552.48C553.98 84.1197 554.09 83.1997 554.09 82.9197C554.09 82.6097 553.95 82.2597 553.62 81.7597L537.08 58.5497L553.47 37.3397C553.88 36.8197 554.08 36.3497 554.08 35.8997C554.08 35.4497 553.9 34.4797 552.21 34.4797H544.76C543.8 34.4797 543.13 34.7497 542.76 35.2697L527.91 55.2097V36.3397C527.91 35.8297 527.71 35.3697 527.33 35.0097C526.96 34.6597 526.49 34.4697 525.97 34.4697H519.54C519 34.4697 518.52 34.6597 518.16 35.0197C517.8 35.3797 517.61 35.8397 517.61 36.3397V82.1897C517.61 82.7097 517.81 83.1897 518.18 83.5597C518.55 83.9297 519.02 84.1297 519.55 84.1297V84.1197Z" fill="#6D6E71"/>
<path d="M585.57 82.5497C585.81 83.5597 586.47 84.1096 587.42 84.1096H594.33C595.46 84.1096 596.14 83.4597 596.14 82.3697L585.36 41.0096C584.14 36.2796 580.89 33.8896 575.71 33.8896C570.53 33.8896 567.25 36.2896 566.03 41.0096L555.33 81.8997C555.26 82.1697 555.25 82.2797 555.25 82.3697C555.25 83.4597 555.92 84.1096 557.06 84.1096H563.97C564.37 84.1096 564.75 83.9696 565.08 83.6996C565.4 83.4396 565.6 83.1797 565.7 82.8997C565.72 82.8297 565.79 82.6296 566.88 78.0896L568.71 70.6096H582.72L585.6 82.5396L585.57 82.5497ZM575.38 42.8797C575.4 42.8197 575.51 42.7896 575.7 42.7896C575.8 42.7896 575.86 42.7896 575.88 42.7896C576 43.1096 576.36 44.3696 577.48 48.9396L580.64 61.9496H570.74L575.38 42.8896V42.8797Z" fill="#6D6E71"/>
<path d="M645.85 56.0196C642.54 53.4096 637.72 52.0796 631.52 52.0796C629.2 52.0796 627.49 52.1096 626.32 52.1696V43.1796H646.29C647.5 43.1796 648.22 42.5096 648.22 41.3796V36.2196C648.22 35.7196 648.03 35.2596 647.67 34.8996C647.31 34.5396 646.83 34.3496 646.29 34.3496H617.95C617.43 34.3496 616.95 34.5496 616.58 34.9196C616.2 35.2896 616.01 35.7596 616.01 36.2896V81.2096C616.01 82.3496 616.55 82.9596 617 83.2696C617.42 83.5596 618.4 83.9096 622.51 84.2596C625.51 84.5096 628.53 84.6396 631.51 84.6396C635.6 84.6396 639.13 84.0596 642.01 82.9096C644.94 81.7396 647.17 79.9596 648.66 77.6196C650.14 75.2896 650.89 72.3796 650.89 68.9596V67.7796C650.89 62.6396 649.19 58.6796 645.84 56.0296L645.85 56.0196ZM631.52 75.8896C629.69 75.8896 627.95 75.8196 626.32 75.6896V61.0496C627.93 60.9196 629.67 60.8496 631.52 60.8496C634.7 60.8496 637.06 61.3996 638.53 62.4896C639.97 63.5496 640.66 65.2796 640.66 67.7696V68.9496C640.66 71.3696 639.96 73.1396 638.58 74.2196C637.15 75.3396 634.77 75.8996 631.52 75.8996V75.8896Z" fill="#6D6E71"/>
<path d="M673.02 33.8997C667.82 33.8997 664.56 36.2996 663.34 41.0196L652.64 81.9097C652.57 82.1797 652.56 82.2896 652.56 82.3796C652.56 83.4696 653.23 84.1197 654.37 84.1197H661.28C661.68 84.1197 662.06 83.9796 662.39 83.7096C662.71 83.4496 662.91 83.1897 663.01 82.9097C663.03 82.8397 663.1 82.6396 664.19 78.0996L666.02 70.6197H680.03L682.91 82.5497C683.15 83.5597 683.81 84.1096 684.76 84.1096H691.67C692.8 84.1096 693.47 83.4597 693.47 82.3697L682.69 41.0096C681.47 36.2796 678.22 33.8896 673.04 33.8896L673.02 33.8997ZM672.7 42.8797C672.72 42.8197 672.83 42.7896 673.02 42.7896C673.12 42.7896 673.18 42.7896 673.2 42.7896C673.32 43.1096 673.68 44.3696 674.8 48.9396L677.96 61.9496H668.06L672.7 42.8896V42.8797Z" fill="#6D6E71"/>
<path d="M733.66 34.4102H727.2C726.68 34.4102 726.21 34.6002 725.84 34.9502C725.46 35.3102 725.27 35.7702 725.27 36.2802V53.6402H707.99V36.2802C707.99 35.7702 707.79 35.3102 707.41 34.9502C707.04 34.6002 706.57 34.4102 706.05 34.4102H699.62C699.08 34.4102 698.6 34.6002 698.24 34.9602C697.88 35.3202 697.69 35.7802 697.69 36.2802V82.1902C697.69 82.7102 697.89 83.1902 698.26 83.5602C698.63 83.9302 699.1 84.1302 699.63 84.1302H706.06C706.58 84.1302 707.06 83.9302 707.43 83.5602C707.8 83.1902 708 82.7202 708 82.1902V62.8502H725.28V82.1902C725.28 82.7102 725.48 83.1902 725.85 83.5602C726.22 83.9302 726.69 84.1302 727.22 84.1302H733.68C734.18 84.1302 734.64 83.9402 735.02 83.5702C735.41 83.2002 735.61 82.7202 735.61 82.1902V36.2802C735.61 35.7702 735.41 35.3102 735.03 34.9502C734.66 34.6002 734.19 34.4102 733.67 34.4102H733.66Z" fill="#6D6E71"/>
<path d="M779.92 35.89C779.92 35.46 779.74 34.47 778.05 34.47H770.6C769.64 34.47 768.97 34.74 768.6 35.26L753.75 55.2V36.33C753.75 35.82 753.55 35.36 753.17 35C752.8 34.65 752.33 34.46 751.81 34.46H745.38C744.84 34.46 744.36 34.65 744 35.01C743.64 35.37 743.45 35.83 743.45 36.33V82.18C743.45 82.7 743.65 83.18 744.02 83.55C744.39 83.92 744.86 84.12 745.39 84.12H751.82C752.34 84.12 752.82 83.92 753.19 83.55C753.56 83.18 753.76 82.71 753.76 82.18V62.59L767.54 83.1C767.84 83.56 768.44 84.12 769.56 84.12H778.32C779.82 84.12 779.93 83.2 779.93 82.92C779.93 82.61 779.79 82.26 779.46 81.76L762.92 58.55L779.31 37.34C779.72 36.82 779.92 36.35 779.92 35.9V35.89Z" fill="#6D6E71"/>
<path d="M811.19 41.0204C809.97 36.2904 806.72 33.9004 801.54 33.9004C796.36 33.9004 793.08 36.3004 791.86 41.0204L781.16 81.9104C781.09 82.1804 781.08 82.2904 781.08 82.3804C781.08 83.4704 781.75 84.1204 782.88 84.1204H789.79C790.19 84.1204 790.57 83.9804 790.9 83.7104C791.22 83.4504 791.42 83.1904 791.52 82.9104C791.54 82.8404 791.61 82.6404 792.7 78.1004L794.53 70.6204H808.54L811.42 82.5504C811.66 83.5604 812.32 84.1104 813.27 84.1104H820.18C821.31 84.1104 821.98 83.4604 821.98 82.3704L811.2 41.0104L811.19 41.0204ZM801.21 42.8804C801.23 42.8204 801.34 42.7904 801.53 42.7904C801.63 42.7904 801.69 42.7904 801.71 42.7904C801.83 43.1104 802.19 44.3704 803.31 48.9404L806.47 61.9504H796.57L801.21 42.8904V42.8804Z" fill="#6D6E71"/>
<path d="M253.93 106.63C251.13 106.63 248.26 106.88 245.4 107.39C241.53 108.07 240.67 108.41 240.35 108.65C239.69 109.14 239.55 109.72 239.55 110.13V114.17C239.55 115.3 240.22 115.97 241.35 115.97L248.38 115.33C250.56 115.14 252.43 115.05 253.93 115.05C258.48 115.05 260.59 116.84 260.59 120.7V121.75C260.59 123.84 260.15 125.33 259.29 126.19C258.43 127.05 257.06 127.49 255.23 127.49H243.67C242.52 127.49 241.83 128.19 241.83 129.36V133.47C241.83 134.64 242.52 135.34 243.67 135.34H255.23C258.89 135.34 260.59 137.23 260.59 141.3V142.67C260.59 144.9 260.07 146.52 259.04 147.48C258 148.46 256.28 148.95 253.93 148.95C251.58 148.95 247.51 148.64 241.54 148.03H241.35C240.22 148.03 239.55 148.7 239.55 149.83V153.87C239.55 154.52 239.86 155.05 240.45 155.4C240.77 155.59 241.62 155.9 245.33 156.59C248.08 157.1 250.98 157.37 253.93 157.37C259.13 157.37 263.3 156.08 266.32 153.54C269.37 150.97 270.92 147.32 270.92 142.67V141.3C270.92 139.1 270.4 137.05 269.38 135.2C268.52 133.65 267.36 132.38 265.91 131.4C269.24 129.24 270.93 125.99 270.93 121.75V120.7C270.93 116.09 269.44 112.54 266.51 110.17C263.62 107.83 259.39 106.64 253.94 106.64L253.93 106.63Z" fill="#6D6E71"/>
<path d="M293.11 106.63C287.91 106.63 284.65 109.03 283.43 113.75L272.73 154.64C272.66 154.91 272.65 155.02 272.65 155.11C272.65 156.2 273.32 156.85 274.45 156.85H281.36C281.76 156.85 282.14 156.71 282.47 156.44C282.79 156.18 282.99 155.92 283.09 155.64C283.11 155.57 283.18 155.37 284.27 150.83L286.1 143.35H300.11L302.99 155.28C303.23 156.29 303.89 156.84 304.84 156.84H311.75C312.88 156.84 313.55 156.19 313.55 155.1L302.77 113.74C301.55 109.01 298.3 106.62 293.12 106.62L293.11 106.63ZM292.79 115.61C292.81 115.55 292.92 115.52 293.11 115.52C293.21 115.52 293.28 115.53 293.29 115.52C293.41 115.84 293.77 117.1 294.89 121.67L298.05 134.68H288.15L292.79 115.62V115.61Z" fill="#6D6E71"/>
<path d="M368.31 122.89V122.32C368.31 117.18 366.61 113.22 363.26 110.57C359.95 107.96 355.13 106.63 348.93 106.63C345.98 106.63 342.96 106.76 339.98 107.01C335.87 107.36 334.88 107.72 334.47 107.99C334 108.3 333.44 108.91 333.44 110.06V154.92C333.44 155.44 333.64 155.92 334.01 156.29C334.38 156.66 334.85 156.86 335.38 156.86H341.88C342.41 156.86 342.88 156.66 343.23 156.27C343.57 155.9 343.75 155.44 343.75 154.92V138.58C346.14 138.73 347.85 138.8 348.95 138.8C353.01 138.8 356.52 138.2 359.39 137.02C362.31 135.82 364.56 134.01 366.06 131.64C367.56 129.28 368.32 126.34 368.32 122.9L368.31 122.89ZM348.93 130.09C347.62 130.09 345.88 130.04 343.73 129.93V115.59C345.35 115.44 347.1 115.36 348.93 115.36C352.19 115.36 354.57 115.93 355.99 117.04C357.39 118.13 358.07 119.86 358.07 122.31V122.88C358.07 125.44 357.37 127.23 355.94 128.35C354.48 129.5 352.12 130.08 348.92 130.08L348.93 130.09Z" fill="#6D6E71"/>
<path d="M386.39 106.63C381.19 106.63 377.93 109.03 376.71 113.75L366.01 154.64C365.94 154.91 365.93 155.02 365.93 155.11C365.93 156.2 366.6 156.85 367.73 156.85H374.64C375.04 156.85 375.42 156.71 375.75 156.44C376.07 156.18 376.27 155.92 376.37 155.64C376.39 155.57 376.46 155.37 377.55 150.83L379.38 143.35H393.39L396.27 155.28C396.51 156.29 397.17 156.84 398.12 156.84H405.03C406.16 156.84 406.83 156.19 406.83 155.1L396.05 113.74C394.83 109.01 391.58 106.62 386.4 106.62L386.39 106.63ZM386.06 115.61C386.08 115.55 386.19 115.52 386.38 115.52C386.48 115.52 386.54 115.53 386.56 115.52C386.68 115.84 387.04 117.1 388.16 121.67L391.32 134.68H381.42L386.06 115.62V115.61Z" fill="#6D6E71"/>
<path d="M424.45 106.63C421.65 106.63 418.78 106.88 415.92 107.39C412.05 108.07 411.19 108.41 410.87 108.65C410.21 109.14 410.07 109.72 410.07 110.13V114.17C410.07 115.3 410.74 115.97 411.87 115.97L418.9 115.33C421.08 115.14 422.95 115.05 424.45 115.05C429 115.05 431.11 116.84 431.11 120.7V121.75C431.11 123.84 430.67 125.33 429.81 126.19C428.95 127.05 427.58 127.49 425.75 127.49H414.19C413.04 127.49 412.35 128.19 412.35 129.36V133.47C412.35 134.64 413.04 135.34 414.19 135.34H425.75C429.41 135.34 431.11 137.23 431.11 141.3V142.67C431.11 144.9 430.59 146.52 429.56 147.48C428.52 148.46 426.8 148.95 424.45 148.95C422.1 148.95 418.03 148.64 412.06 148.03H411.87C410.74 148.03 410.07 148.7 410.07 149.83V153.87C410.07 154.52 410.38 155.05 410.97 155.4C411.29 155.59 412.14 155.9 415.85 156.59C418.6 157.1 421.5 157.37 424.45 157.37C429.65 157.37 433.82 156.08 436.84 153.54C439.89 150.97 441.44 147.32 441.44 142.67V141.3C441.44 139.1 440.92 137.05 439.9 135.2C439.04 133.65 437.88 132.38 436.43 131.4C439.76 129.24 441.45 125.99 441.45 121.75V120.7C441.45 116.09 439.96 112.54 437.03 110.17C434.14 107.83 429.91 106.64 424.46 106.64L424.45 106.63Z" fill="#6D6E71"/>
<path d="M478.61 131.63C480.11 130.77 481.31 129.58 482.19 128.09C483.28 126.25 483.84 124.13 483.84 121.8V120.49C483.84 111.28 476.87 106.62 463.12 106.62C460.89 106.62 458.29 106.72 455.41 106.91C451.33 107.18 450.25 107.77 449.79 108.19C449.05 108.86 448.68 109.95 448.68 111.42V152.49C448.68 154.18 449.2 155.35 450.22 155.94C451.13 156.47 452.87 156.83 455.55 157.04C458.1 157.24 460.85 157.35 463.7 157.35C470.53 157.35 475.69 156.14 479.03 153.74C482.44 151.3 484.16 147.57 484.16 142.65V141.54C484.16 136.97 482.3 133.64 478.61 131.63ZM458.97 135.39H466.62C469.08 135.39 470.95 135.95 472.19 137.05C473.42 138.15 474.02 139.66 474.02 141.68V142.54C474.02 144.82 473.28 146.36 471.76 147.23C470.14 148.16 467.43 148.63 463.71 148.63L458.97 148.52V135.4V135.39ZM473.76 121.93C473.76 125.67 471.42 127.48 466.62 127.48H458.97V115.49C460.53 115.41 461.92 115.37 463.12 115.37C467.15 115.37 469.99 115.82 471.57 116.7C473.05 117.53 473.77 118.94 473.77 121.01V121.93H473.76Z" fill="#6D6E71"/>
<path d="M525.06 107.13H517.99C517.01 107.13 516.3 107.35 515.79 107.8C515.34 108.2 514.94 108.79 514.55 109.6L499.73 142.31V109C499.73 107.83 499.03 107.13 497.86 107.13H492.26C491.09 107.13 490.39 107.83 490.39 109V153.61C490.39 154.5 490.71 155.27 491.34 155.9C491.97 156.53 492.74 156.85 493.63 156.85H500.19C501.31 156.85 502.17 156.71 502.84 156.42C503.58 156.1 504.2 155.35 504.74 154.13L518.95 122.99V154.92C518.95 155.44 519.12 155.89 519.47 156.27C519.82 156.65 520.29 156.86 520.82 156.86H526.36C526.86 156.86 527.32 156.67 527.7 156.3C528.09 155.93 528.29 155.45 528.29 154.92V110.38C528.29 109.51 527.97 108.75 527.33 108.1C526.69 107.46 525.92 107.14 525.06 107.14V107.13Z" fill="#6D6E71"/>
<path d="M566.72 107.13H534.82C534.3 107.13 533.83 107.32 533.46 107.67C533.08 108.03 532.89 108.49 532.89 109V114.16C532.89 115.29 533.61 115.96 534.82 115.96H545.62V154.91C545.62 155.43 545.82 155.91 546.19 156.28C546.56 156.65 547.03 156.85 547.56 156.85H553.99C554.51 156.85 554.99 156.65 555.36 156.28C555.73 155.91 555.93 155.44 555.93 154.91V115.96H566.73C567.94 115.96 568.66 115.29 568.66 114.16V109C568.66 108.49 568.46 108.03 568.08 107.67C567.71 107.32 567.24 107.13 566.72 107.13Z" fill="#6D6E71"/>
<path d="M607.94 107.13H600.87C599.89 107.13 599.18 107.35 598.67 107.8C598.22 108.2 597.82 108.79 597.43 109.6L582.61 142.31V109C582.61 107.83 581.91 107.13 580.74 107.13H575.14C573.97 107.13 573.27 107.83 573.27 109V153.61C573.27 154.5 573.59 155.27 574.22 155.9C574.85 156.53 575.62 156.85 576.51 156.85H583.07C584.19 156.85 585.05 156.71 585.72 156.42C586.46 156.1 587.08 155.35 587.62 154.13L601.83 122.99V154.92C601.83 155.44 602 155.89 602.35 156.27C602.7 156.65 603.17 156.86 603.7 156.86H609.24C609.74 156.86 610.2 156.67 610.58 156.3C610.97 155.93 611.17 155.45 611.17 154.92V110.38C611.17 109.51 610.85 108.75 610.21 108.1C609.57 107.46 608.8 107.14 607.94 107.14V107.13Z" fill="#6D6E71"/>
<path d="M643.6 107.07C640.79 106.77 637.81 106.62 634.73 106.62C629.07 106.62 624.99 107.79 622.62 110.09C620.24 112.4 619.04 115.94 619.04 120.62V143.38C619.04 148.03 620.24 151.56 622.62 153.87C624.99 156.18 629.06 157.34 634.73 157.34C638.41 157.34 641.53 157.18 644.01 156.87C647.85 156.39 648.18 156.17 648.37 156.04C648.82 155.74 649.04 155.2 649.04 154.45V150.28C649.04 149.75 648.85 149.29 648.47 148.91C648.1 148.54 647.63 148.34 647.1 148.34H633.79C632.01 148.34 630.8 147.99 630.2 147.31C629.58 146.6 629.26 145.28 629.26 143.36V135.55H646.3C646.82 135.55 647.3 135.35 647.67 134.98C648.04 134.61 648.24 134.14 648.24 133.61V128.93C648.24 128.4 648.05 127.94 647.67 127.56C647.3 127.19 646.83 126.99 646.3 126.99H629.26V120.58C629.26 118.67 629.58 117.34 630.2 116.63C630.8 115.95 632.01 115.6 633.79 115.6H647.1C647.62 115.6 648.1 115.4 648.47 115.03C648.84 114.66 649.04 114.19 649.04 113.66V109.49C649.04 108.86 648.87 108.36 648.53 108.01C648.31 107.78 648.04 107.49 643.59 107.02L643.6 107.07Z" fill="#6D6E71"/>
</g>
<defs>
<linearGradient id="paint0_linear_37_180" x1="3.83" y1="3.83" x2="188.29" y2="188.29" gradientUnits="userSpaceOnUse">
<stop offset="0.25" stop-color="#0092C8"/>
<stop offset="1" stop-color="#002E5E"/>
</linearGradient>
<clipPath id="clip0_37_180">
<rect width="821.97" height="192.12" fill="white"/>
</clipPath>
</defs>
</svg>
