<svg xmlns="http://www.w3.org/2000/svg" width="190" height="98" viewBox="0 0 190 98">
  <metadata><?xpacket begin="﻿" id="W5M0MpCehiHzreSzNTczkc9d"?>
<x:xmpmeta xmlns:x="adobe:ns:meta/" x:xmptk="Adobe XMP Core 5.6-c138 79.159824, 2016/09/14-01:09:01        ">
   <rdf:RDF xmlns:rdf="http://www.w3.org/1999/02/22-rdf-syntax-ns#">
      <rdf:Description rdf:about=""/>
   </rdf:RDF>
</x:xmpmeta>
                                                                                                    
                                                                                                    
                                                                                                    
                                                                                                    
                                                                                                    
                                                                                                    
                                                                                                    
                                                                                                    
                                                                                                    
                                                                                                    
                                                                                                    
                                                                                                    
                                                                                                    
                                                                                                    
                                                                                                    
                                                                                                    
                                                                                                    
                                                                                                    
                                                                                                    
                                                                                                    
                           
<?xpacket end="w"?></metadata>
<defs>
    <style>
      .cls-1 {
        fill: #0345a5;
      }

      .cls-1, .cls-2 {
        fill-rule: evenodd;
      }

      .cls-2 {
        fill: #fdb913;
      }
    </style>
  </defs>
  <path class="cls-1" d="M29.27,53.567L21.424,80.129c14.141,0,22.6-3.57,24.4-13.137C47.672,57.091,42.052,53.567,29.27,53.567ZM64,0.006H-0.011V98.015H64V0.006ZM53.706,69.2c-3.4,11.591-14.378,16.518-33.051,16.518H11.3L22.663,48.01l8.1,0.015C48.483,48.026,57.905,54.889,53.706,69.2ZM98.224,58.507c0-6.471-4.317-10.6-11.723-10.6H71.262V85.633H87.138c6.769,0,11.61-3.808,11.61-10.877a8.752,8.752,0,0,0-5.217-8.463A8.713,8.713,0,0,0,98.224,58.507Zm-19.55-4.026h7.236c3.141,0,4.911,1.734,4.911,4.338s-1.77,4.35-4.911,4.35H78.674V54.481ZM86.4,79.057H78.674v-9.28H86.4c3.352,0,4.954,2.074,4.954,4.621S89.748,79.057,86.4,79.057Zm40.373,6.577V67.447c0-6.464-4.045-9.745-11.82-9.745-4.634,0-7.3.858-10.014,3.826l4.431,4.3c1.426-1.653,2.655-2.307,5.314-2.307,3.668,0,5.167,1.328,5.167,4.347v1.4H113.3c-6.452,0-9.487,3.592-9.487,7.986a8.921,8.921,0,0,0,2.292,6.212c1.652,1.643,3.941,2.429,7.079,2.429,3.2,0,4.96-.786,6.823-2.654v2.392h6.762Zm-6.922-10.178c0,1.687-.276,2.819-1.023,3.492-1.222,1.166-2.439,1.319-4.357,1.319-2.715,0-3.992-1.26-3.992-3.165,0-1.958,1.386-3.134,3.885-3.134h5.487v1.487Zm37.446,10.178V67.983c0-3.015-.589-5.625-2.828-7.827a8.946,8.946,0,0,0-6.54-2.46A9.5,9.5,0,0,0,141,60.583V58.011h-6.769V85.633h6.925V68.95c0-3.779,2.446-5.042,4.638-5.042,2.172,0,4.567,1.263,4.567,5.042V85.633h6.929ZM164.762,47.9V85.633h6.92v-8.22l2.937-3.284,6.81,11.5h8.578L179.353,69.156l9.908-11.145H180.89l-9.208,11.3V47.9h-6.92Zm-56.537.936a3.34,3.34,0,0,0-1.037,2.557,2.742,2.742,0,0,0,.834,2.083,3.268,3.268,0,0,0,2.351.817,5.321,5.321,0,0,0,1.674-.24l0.182-1.35a3.443,3.443,0,0,1-1.6.362,1.8,1.8,0,0,1-1.226-.4,1.577,1.577,0,0,1-.489-1.225,2.436,2.436,0,0,1,.549-1.637,2.271,2.271,0,0,1,1.809-.736,3.083,3.083,0,0,1,1.567.377l0.395-1.279a6.451,6.451,0,0,0-2.219-.327A3.833,3.833,0,0,0,108.225,48.833Zm7.1,5.457a3.328,3.328,0,0,0,2.172-.661,2.688,2.688,0,0,0,.853-2.133,1.91,1.91,0,0,0-.627-1.487,2.67,2.67,0,0,0-1.819-.592,3,3,0,0,0-2.188.767,2.5,2.5,0,0,0-.821,1.977,2.013,2.013,0,0,0,.564,1.509A2.613,2.613,0,0,0,115.324,54.29ZM114.9,51.06a1.111,1.111,0,0,1,.931-0.514,0.8,0.8,0,0,1,.847.942,1.975,1.975,0,0,1-.339,1.229,1.033,1.033,0,0,1-.9.449,0.829,0.829,0,0,1-.646-0.281,1.182,1.182,0,0,1-.228-0.767A1.785,1.785,0,0,1,114.9,51.06Zm11.986-.259a1.278,1.278,0,0,0-.477-1.082,1.518,1.518,0,0,0-.99-0.3,1.967,1.967,0,0,0-1.678.945,1.06,1.06,0,0,0-.454-0.72,1.3,1.3,0,0,0-.765-0.224,1.908,1.908,0,0,0-1.649.945l-0.026.009,0.179-.845H119.6c-0.044.384-.12,0.8-0.2,1.216l-0.727,3.446h1.605l0.457-2.152A5.091,5.091,0,0,1,121,51.2a0.788,0.788,0,0,1,.709-0.443,0.444,0.444,0,0,1,.511.483,2.806,2.806,0,0,1-.088.674l-0.47,2.273h1.624l0.454-2.152a2.878,2.878,0,0,1,.279-0.836,0.735,0.735,0,0,1,.693-0.443,0.449,0.449,0,0,1,.524.483,5.963,5.963,0,0,1-.091.674l-0.477,2.273h1.6l0.5-2.335A5.415,5.415,0,0,0,126.883,50.8Zm6.264,3.386h1.63l0.477-2.335a5.93,5.93,0,0,0,.116-1.051,1.352,1.352,0,0,0-.448-1.082,1.663,1.663,0,0,0-1.023-.3,1.9,1.9,0,0,0-1.652.945,1.2,1.2,0,0,0-.473-0.72A1.286,1.286,0,0,0,131,49.416a1.919,1.919,0,0,0-1.643.945l-0.025.009,0.182-.845h-1.433a11.6,11.6,0,0,1-.2,1.216l-0.715,3.446h1.605l0.448-2.152a5.19,5.19,0,0,1,.267-0.836,0.8,0.8,0,0,1,.715-0.443,0.449,0.449,0,0,1,.514.483,2.97,2.97,0,0,1-.088.674l-0.48,2.273h1.634l0.445-2.152a4.568,4.568,0,0,1,.273-0.836,0.765,0.765,0,0,1,.7-0.443,0.449,0.449,0,0,1,.524.483,6.569,6.569,0,0,1-.088.674Zm7.669-2.744a1.993,1.993,0,0,0-.6-1.556,2.383,2.383,0,0,0-1.536-.471,2.647,2.647,0,0,0-2.2.967,2.734,2.734,0,0,0-.611,1.778,1.974,1.974,0,0,0,.611,1.509,2.544,2.544,0,0,0,1.788.62,5.294,5.294,0,0,0,1.633-.262l0.223-1.138a3.413,3.413,0,0,1-1.464.33c-0.819,0-1.255-.3-1.276-0.9h3.329A4.711,4.711,0,0,0,140.816,51.443Zm-3.323-.034a1.2,1.2,0,0,1,.366-0.62,1.161,1.161,0,0,1,.819-0.29,0.74,0.74,0,0,1,.783.911h-1.968Zm4.548-1.88a10.037,10.037,0,0,1-.175,1.223l-0.756,3.436h1.627l0.455-2.152a1.3,1.3,0,0,1,1.226-1.279,1.287,1.287,0,0,1,.749.194l0.355-1.422a1.782,1.782,0,0,0-.678-0.112,1.345,1.345,0,0,0-.877.337,1.749,1.749,0,0,0-.568.72H143.38l0.182-.945h-1.521Zm4.139,0.677a2.577,2.577,0,0,0-.834,1.955,2.135,2.135,0,0,0,.589,1.509,2.224,2.224,0,0,0,1.634.62,4.629,4.629,0,0,0,1.373-.178l0.226-1.207a2.7,2.7,0,0,1-1.038.2,1.153,1.153,0,0,1-.818-0.284,0.948,0.948,0,0,1-.282-0.727,1.52,1.52,0,0,1,.4-1.113,1.336,1.336,0,0,1,1.016-.383,2.476,2.476,0,0,1,1.037.246l0.37-1.11a3.658,3.658,0,0,0-1.5-.318A3.078,3.078,0,0,0,146.18,50.206Zm8.625,1.238a2,2,0,0,0-.608-1.556,2.447,2.447,0,0,0-1.568-.471,2.645,2.645,0,0,0-2.176.967,2.776,2.776,0,0,0-.6,1.778,2,2,0,0,0,.6,1.509,2.562,2.562,0,0,0,1.787.62,5.191,5.191,0,0,0,1.631-.262l0.2-1.138a3.182,3.182,0,0,1-1.442.33,1.022,1.022,0,0,1-1.273-.9h3.336A5.055,5.055,0,0,0,154.805,51.443Zm-3.323-.034a1.046,1.046,0,0,1,.357-0.62,1.168,1.168,0,0,1,.815-0.29,0.745,0.745,0,0,1,.793.911h-1.965Z"/>
  <path class="cls-2" d="M17.618,11.631c26.509,29.89,63.771,30.074,89.969,0-22.219,37.228-67.956,36.741-89.969,0"/>
</svg>
