<?xml version="1.0" encoding="UTF-8"?> <svg xmlns="http://www.w3.org/2000/svg" xmlns:xlink="http://www.w3.org/1999/xlink" version="1.1" id="Layer_1" x="0px" y="0px" width="136.2px" height="25.3px" viewBox="0 0 136.2 25.3" style="enable-background:new 0 0 136.2 25.3;" xml:space="preserve"> <style type="text/css"> .st0{fill:#CE1F25;} .st1{fill:#A7A9AC;} </style> <g id="XMLID_52_"> <g> <g> <path class="st0" d="M9.9,20V3H8C6.1,3,4.9,3.3,4.3,4c-0.6,0.6-1,2-1.1,3.9V10H0V5V0h13h13v5v5h-3.1V7.9c-0.1-2-0.5-3.3-1.1-3.9 c-0.8-0.7-2-1-3.8-1h-2v17c0,1,0.2,1.6,0.6,1.9s1.1,0.5,2.2,0.5h1.8v2.9H13H5.5v-2.9h1.7c1.1,0,1.8-0.2,2.2-0.5 C9.7,21.6,9.9,21,9.9,20z"></path> </g> </g> </g> <g id="XMLID_5_"> <g> <path id="XMLID_00000034788100309461421210000008806636963468758200_" class="st1" d="M94.2,19.1c0.5-0.6,0.8-1.2,0.9-1.9v-0.5 c0-1-0.4-2-1.1-2.7s-1.7-1.1-2.7-1.1h-8v12.4h8c1,0,2-0.4,2.7-1.1s1.1-1.7,1.1-2.7V21l0,0C95,20.3,94.7,19.6,94.2,19.1z M86.2,15.7c0.2,0,4.8,0,4.8,0c0.6,0,1.1,0.5,1.1,1.1V17c0,0,0,0.1,0,0.2l0,0v0.1c-0.2,0.4-0.6,0.7-1,0.7c0,0-4.6,0-4.8,0 L86.2,15.7L86.2,15.7z M91,22.5c0,0-4.6,0-4.8,0c0-0.1,0-1.4,0-1.4s0-0.6,0-0.8c0.2,0,4.8,0,4.8,0c0.5,0,0.9,0.3,1.1,0.8v0.3 C92.1,22,91.6,22.5,91,22.5z"></path> <path id="XMLID_00000101797261637369116970000018434896202266734487_" class="st1" d="M131.5,12.9c0,0-3.5,4.1-4.1,4.8 c0-0.3,0-4.9,0-4.9h-3.1v12.4h3.1c0,0,0-4,0-4.1c0,0,0.7-0.6,0.7-0.7c0.1,0.1,3.9,4.8,3.9,4.8h4.1c0,0-5.4-6.3-5.7-6.7 c0.1-0.1,5.1-5.7,5.1-5.7L131.5,12.9z"></path> <path id="XMLID_00000093859976082712448360000016765403422612922033_" class="st1" d="M108,25.3v-8.5c0-1-0.4-2-1.1-2.7 s-1.7-1.1-2.7-1.1h-2.9c-1,0-2,0.4-2.7,1.1c-0.7,0.7-1.1,1.7-1.1,2.7v8.5h3c0,0,0-3.6,0-3.8h4.5v3.8H108z M105,18.5h-4.5 c0-0.2,0-1.5,0-1.5c0-0.3,0.1-0.6,0.3-0.8c0.2-0.2,0.5-0.3,0.8-0.3h2.3c0.3,0,0.6,0.1,0.8,0.3c0.2,0.2,0.3,0.5,0.3,0.8 C105,17,105,18.3,105,18.5z"></path> <path id="XMLID_00000069367400775632749860000005832571900865916605_" class="st1" d="M63.7,12.9c-1,0-2,0.4-2.7,1.1 c-0.7,0.7-1.1,1.7-1.1,2.7v8.5h3v-8.3c0-0.3,0.1-0.6,0.3-0.8s0.5-0.3,0.8-0.3c0,0,2.6,0,2.8,0c0,0.2,0,9.4,0,9.4h3 c0,0,0-9.1,0-9.4c0.2,0,2.6,0,2.6,0c0.3,0,0.6,0.1,0.8,0.3c0.2,0.2,0.3,0.5,0.3,0.8v8.3h3v-8.5c0-1-0.4-2-1.1-2.7 s-1.7-1.1-2.7-1.1C72.7,12.9,63.7,12.9,63.7,12.9z"></path> <path id="XMLID_00000033368698342973005400000014453224031596759698_" class="st1" d="M48.7,12.8c0,0-3.5,3.8-3.6,4 c-0.2-0.2-3.6-4-3.6-4h-4.1c0,0,5.5,6,5.6,6.2c-0.1,0.1-5.7,6.3-5.7,6.3h4.1c0,0,3.5-3.9,3.7-4.1c0.2,0.2,3.7,4.1,3.7,4.1h4.1 c0,0-5.6-6.1-5.7-6.3c0.1-0.1,5.6-6.2,5.6-6.2H48.7z"></path> <path id="XMLID_00000047043895704262779790000017268086765552522906_" class="st1" d="M28,12.8c-1,0-2,0.4-2.7,1.1 c-0.7,0.7-1.1,1.7-1.1,2.7v4.8c0,1,0.4,2,1.1,2.7s1.7,1.1,2.7,1.1h8v-3h-7.8c-0.3,0-0.6-0.1-0.8-0.3c-0.2-0.2-0.3-0.5-0.3-0.8 c0,0,0-0.4,0-0.6c0.2,0,6.5,0,6.5,0v-2.9c0,0-6.3,0-6.5,0c0-0.2,0-0.7,0-0.7c0-0.3,0.1-0.6,0.3-0.8c0.2-0.2,0.5-0.3,0.8-0.3H36v-3 C36,12.8,28,12.8,28,12.8z"></path> <rect id="XMLID_00000097461524218812928780000006686346013589240709_" x="54.2" y="12.9" class="st1" width="3" height="12.5"></rect> <polygon id="XMLID_00000008122469730524197000000013828938853634046086_" class="st1" points="121.7,25.3 121.7,25.3 121.7,12.9 118.7,12.9 118.7,20.7 113.6,12.9 113.6,12.9 113.6,12.9 110.6,12.9 110.6,25.3 113.6,25.3 113.6,17.5 118.7,25.3 118.7,25.3 121.7,25.3 "></polygon> </g> </g> </svg> 